<mxfile host="app.diagrams.net" modified="2024-04-19T14:01:12.620Z" agent="Mozilla/5.0 (Windows NT 10.0; Win64; x64) AppleWebKit/537.36 (KHTML, like Gecko) Chrome/123.0.0.0 Safari/537.36" etag="UGh8M8th3BjLhXe6oa9v" version="24.2.5" type="github">
  <diagram name="Page-1" id="bfe91b75-5d2c-26a0-9c1d-138518896778">
    <mxGraphModel dx="3118" dy="1892" grid="1" gridSize="10" guides="1" tooltips="1" connect="1" arrows="1" fold="1" page="1" pageScale="1" pageWidth="1100" pageHeight="850" background="none" math="0" shadow="0">
      <root>
        <mxCell id="0" />
        <mxCell id="1" parent="0" />
        <mxCell id="3SPEe0byowuw1gI_Q946-110" value="領家仕事ルート" style="rounded=1;whiteSpace=wrap;html=1;shadow=0;comic=0;strokeColor=#036897;strokeWidth=2;fillColor=none;fontFamily=Verdana;fontSize=28;fontColor=#6881B3;align=center;arcSize=11;verticalAlign=top;" parent="1" vertex="1">
          <mxGeometry x="-985" y="882.5" width="335" height="1320" as="geometry" />
        </mxCell>
        <mxCell id="7c3789c024ecab99-81" value="領家開発ネットワーク環境" style="rounded=1;whiteSpace=wrap;html=1;shadow=0;comic=0;strokeColor=#036897;strokeWidth=2;fillColor=none;fontFamily=Verdana;fontSize=28;fontColor=#6881B3;align=center;arcSize=11;verticalAlign=top;" parent="1" vertex="1">
          <mxGeometry x="-985" y="-210" width="950" height="1020" as="geometry" />
        </mxCell>
        <mxCell id="7c3789c024ecab99-55" style="edgeStyle=none;html=1;labelBackgroundColor=none;endArrow=none;endFill=0;strokeWidth=2;fontFamily=Verdana;fontSize=28;fontColor=#6881B3;" parent="1" source="7c3789c024ecab99-8" target="7c3789c024ecab99-54" edge="1">
          <mxGeometry relative="1" as="geometry">
            <mxPoint x="365" y="127.00000000000023" as="targetPoint" />
          </mxGeometry>
        </mxCell>
        <mxCell id="7c3789c024ecab99-8" value="" style="fontColor=#0066CC;verticalAlign=top;verticalLabelPosition=bottom;labelPosition=center;align=center;html=1;fillColor=#CCCCCC;strokeColor=#6881B3;gradientColor=none;gradientDirection=north;strokeWidth=2;shape=mxgraph.networks.firewall;rounded=0;shadow=0;comic=0;" parent="1" vertex="1">
          <mxGeometry x="145" y="137" width="100" height="100" as="geometry" />
        </mxCell>
        <mxCell id="7c3789c024ecab99-52" style="edgeStyle=none;html=1;labelBackgroundColor=none;endArrow=none;endFill=0;strokeWidth=2;fontFamily=Verdana;fontSize=15;fontColor=#036897;" parent="1" source="7c3789c024ecab99-10" target="7c3789c024ecab99-8" edge="1">
          <mxGeometry relative="1" as="geometry">
            <mxPoint x="254.99999999999955" y="207" as="targetPoint" />
          </mxGeometry>
        </mxCell>
        <mxCell id="7c3789c024ecab99-10" value="" style="fontColor=#0066CC;verticalAlign=top;verticalLabelPosition=bottom;labelPosition=center;align=center;html=1;fillColor=#CCCCCC;strokeColor=#6881B3;gradientColor=none;gradientDirection=north;strokeWidth=2;shape=mxgraph.networks.router;rounded=0;shadow=0;comic=0;" parent="1" vertex="1">
          <mxGeometry x="5" y="172" width="100" height="30" as="geometry" />
        </mxCell>
        <mxCell id="7c3789c024ecab99-6" value="" style="fontColor=#0066CC;verticalAlign=top;verticalLabelPosition=bottom;labelPosition=center;align=center;html=1;fillColor=#CCCCCC;strokeColor=#6881B3;gradientColor=none;gradientDirection=north;strokeWidth=2;shape=mxgraph.networks.printer;rounded=0;shadow=0;comic=0;" parent="1" vertex="1">
          <mxGeometry x="-294.9999999999998" y="95" width="100" height="100" as="geometry" />
        </mxCell>
        <mxCell id="7c3789c024ecab99-9" value="" style="fontColor=#0066CC;verticalAlign=top;verticalLabelPosition=bottom;labelPosition=center;align=center;html=1;fillColor=#CCCCCC;strokeColor=#6881B3;gradientColor=none;gradientDirection=north;strokeWidth=2;shape=mxgraph.networks.wireless_hub;rounded=0;shadow=0;comic=0;" parent="1" vertex="1">
          <mxGeometry x="-414.9999999999998" y="-120" width="100" height="85" as="geometry" />
        </mxCell>
        <mxCell id="7c3789c024ecab99-30" value="" style="fontColor=#0066CC;verticalAlign=top;verticalLabelPosition=bottom;labelPosition=center;align=center;html=1;fillColor=#CCCCCC;strokeColor=#6881B3;gradientColor=none;gradientDirection=north;strokeWidth=2;shape=mxgraph.networks.wireless_hub;rounded=0;shadow=0;comic=0;" parent="1" vertex="1">
          <mxGeometry x="-414.9999999999998" y="400" width="100" height="85" as="geometry" />
        </mxCell>
        <mxCell id="7c3789c024ecab99-53" value="Internet" style="html=1;fillColor=#CCCCCC;strokeColor=#6881B3;gradientColor=none;gradientDirection=north;strokeWidth=2;shape=mxgraph.networks.cloud;fontColor=#6881B3;rounded=0;shadow=0;comic=0;align=center;fontSize=28;" parent="1" vertex="1">
          <mxGeometry x="25" y="375" width="330" height="140" as="geometry" />
        </mxCell>
        <mxCell id="7c3789c024ecab99-56" style="edgeStyle=none;html=1;labelBackgroundColor=none;endArrow=none;endFill=0;strokeWidth=2;fontFamily=Verdana;fontSize=28;fontColor=#6881B3;exitX=0.251;exitY=1;exitDx=0;exitDy=0;exitPerimeter=0;" parent="1" source="7c3789c024ecab99-54" target="7c3789c024ecab99-53" edge="1">
          <mxGeometry relative="1" as="geometry">
            <mxPoint x="355" y="200" as="sourcePoint" />
          </mxGeometry>
        </mxCell>
        <mxCell id="7c3789c024ecab99-54" value="" style="fontColor=#0066CC;verticalAlign=top;verticalLabelPosition=bottom;labelPosition=center;align=center;html=1;fillColor=#CCCCCC;strokeColor=#6881B3;gradientColor=none;gradientDirection=north;strokeWidth=2;shape=mxgraph.networks.router;rounded=0;shadow=0;comic=0;" parent="1" vertex="1">
          <mxGeometry x="285" y="172" width="100" height="30" as="geometry" />
        </mxCell>
        <mxCell id="7c3789c024ecab99-59" style="edgeStyle=none;html=1;labelBackgroundColor=none;endArrow=none;endFill=0;strokeWidth=2;fontFamily=Verdana;fontSize=28;fontColor=#6881B3;" parent="1" source="7c3789c024ecab99-58" target="7c3789c024ecab99-54" edge="1">
          <mxGeometry relative="1" as="geometry">
            <mxPoint x="275" y="117" as="targetPoint" />
          </mxGeometry>
        </mxCell>
        <mxCell id="7c3789c024ecab99-58" value="" style="fontColor=#0066CC;verticalAlign=top;verticalLabelPosition=bottom;labelPosition=center;align=center;html=1;fillColor=#CCCCCC;strokeColor=#6881B3;gradientColor=none;gradientDirection=north;strokeWidth=2;shape=mxgraph.networks.server_storage;rounded=0;shadow=0;comic=0;" parent="1" vertex="1">
          <mxGeometry x="245" y="-105" width="105" height="105" as="geometry" />
        </mxCell>
        <mxCell id="3SPEe0byowuw1gI_Q946-4" value="" style="html=1;outlineConnect=0;fillColor=#CCCCCC;strokeColor=#6881B3;gradientColor=none;gradientDirection=north;strokeWidth=2;shape=mxgraph.networks.comm_link_edge;html=1;rounded=0;entryX=0.645;entryY=0.958;entryDx=0;entryDy=0;entryPerimeter=0;exitX=0.416;exitY=0.054;exitDx=0;exitDy=0;exitPerimeter=0;" parent="1" target="7c3789c024ecab99-9" edge="1">
          <mxGeometry width="100" height="100" relative="1" as="geometry">
            <mxPoint x="-393.39999999999964" y="113.77999999999997" as="sourcePoint" />
            <mxPoint x="-446.96000000000004" y="9.999999999999886" as="targetPoint" />
          </mxGeometry>
        </mxCell>
        <mxCell id="3SPEe0byowuw1gI_Q946-7" value="" style="html=1;outlineConnect=0;fillColor=#CCCCCC;strokeColor=#6881B3;gradientColor=none;gradientDirection=north;strokeWidth=2;shape=mxgraph.networks.comm_link_edge;html=1;rounded=0;entryX=0.02;entryY=0.94;entryDx=0;entryDy=0;entryPerimeter=0;exitX=1;exitY=0.07;exitDx=0;exitDy=0;exitPerimeter=0;" parent="1" target="7c3789c024ecab99-9" edge="1">
          <mxGeometry width="100" height="100" relative="1" as="geometry">
            <mxPoint x="-495" y="114.89999999999986" as="sourcePoint" />
            <mxPoint x="-435" y="-33.76499999999987" as="targetPoint" />
          </mxGeometry>
        </mxCell>
        <mxCell id="3SPEe0byowuw1gI_Q946-10" value="&lt;p style=&quot;line-height: 100%;&quot;&gt;専用PC&lt;br&gt;&lt;/p&gt;" style="text;html=1;align=center;verticalAlign=middle;resizable=0;points=[];autosize=1;strokeColor=none;fillColor=none;fontSize=24;" parent="1" vertex="1">
          <mxGeometry x="-435" y="180" width="100" height="90" as="geometry" />
        </mxCell>
        <mxCell id="3SPEe0byowuw1gI_Q946-13" value="&lt;p style=&quot;line-height: 100%;&quot;&gt;専用PC&lt;br&gt;&lt;/p&gt;" style="text;html=1;align=center;verticalAlign=middle;resizable=0;points=[];autosize=1;strokeColor=none;fillColor=none;fontSize=24;" parent="1" vertex="1">
          <mxGeometry x="-595" y="180" width="100" height="90" as="geometry" />
        </mxCell>
        <mxCell id="3SPEe0byowuw1gI_Q946-17" value="&lt;p style=&quot;line-height: 100%;&quot;&gt;プリンター&lt;/p&gt;" style="text;html=1;align=center;verticalAlign=middle;resizable=0;points=[];autosize=1;strokeColor=none;fillColor=none;fontSize=24;" parent="1" vertex="1">
          <mxGeometry x="-315" y="180" width="140" height="90" as="geometry" />
        </mxCell>
        <mxCell id="3SPEe0byowuw1gI_Q946-18" value="&lt;p style=&quot;line-height: 50%;&quot;&gt;SBLUE&lt;/p&gt;&lt;p style=&quot;line-height: 50%;&quot;&gt;ルーター&lt;/p&gt;" style="text;html=1;align=center;verticalAlign=middle;resizable=0;points=[];autosize=1;strokeColor=none;fillColor=none;fontSize=24;" parent="1" vertex="1">
          <mxGeometry x="-485" y="-160" width="120" height="110" as="geometry" />
        </mxCell>
        <mxCell id="3SPEe0byowuw1gI_Q946-19" value="&lt;p style=&quot;line-height: 50%;&quot;&gt;SBLUE&lt;/p&gt;&lt;p style=&quot;line-height: 50%;&quot;&gt;ルーター&lt;br&gt;&lt;/p&gt;" style="text;html=1;align=center;verticalAlign=middle;resizable=0;points=[];autosize=1;strokeColor=none;fillColor=none;fontSize=24;" parent="1" vertex="1">
          <mxGeometry x="-5" y="190" width="120" height="110" as="geometry" />
        </mxCell>
        <mxCell id="3SPEe0byowuw1gI_Q946-20" value="&lt;p style=&quot;line-height: 50%;&quot;&gt;Proxy&lt;/p&gt;&lt;p style=&quot;line-height: 50%;&quot;&gt;サーバー&lt;/p&gt;" style="text;html=1;align=center;verticalAlign=middle;resizable=0;points=[];autosize=1;strokeColor=none;fillColor=none;fontSize=24;" parent="1" vertex="1">
          <mxGeometry x="295" y="180" width="120" height="110" as="geometry" />
        </mxCell>
        <mxCell id="3SPEe0byowuw1gI_Q946-21" value="&lt;p style=&quot;line-height: 50%;&quot;&gt;Box&lt;/p&gt;" style="text;html=1;align=center;verticalAlign=middle;resizable=0;points=[];autosize=1;strokeColor=none;fillColor=none;fontSize=24;" parent="1" vertex="1">
          <mxGeometry x="265" y="-180" width="60" height="70" as="geometry" />
        </mxCell>
        <mxCell id="3SPEe0byowuw1gI_Q946-24" style="edgeStyle=none;html=1;labelBackgroundColor=none;endArrow=none;endFill=0;strokeWidth=2;fontFamily=Verdana;fontSize=28;fontColor=#6881B3;exitX=-0.006;exitY=0.684;exitDx=0;exitDy=0;exitPerimeter=0;entryX=0.986;entryY=0.837;entryDx=0;entryDy=0;entryPerimeter=0;" parent="1" source="7c3789c024ecab99-53" target="7c3789c024ecab99-30" edge="1">
          <mxGeometry relative="1" as="geometry">
            <mxPoint x="-195.13999999999987" y="340" as="sourcePoint" />
            <mxPoint x="-313.1399999999999" y="515" as="targetPoint" />
          </mxGeometry>
        </mxCell>
        <mxCell id="3SPEe0byowuw1gI_Q946-25" value="&lt;p style=&quot;line-height: 100%;&quot;&gt;標準PC&lt;br&gt;&lt;/p&gt;" style="text;html=1;align=center;verticalAlign=middle;resizable=0;points=[];autosize=1;strokeColor=none;fillColor=none;fontSize=24;" parent="1" vertex="1">
          <mxGeometry x="-855" y="75" width="100" height="90" as="geometry" />
        </mxCell>
        <mxCell id="3SPEe0byowuw1gI_Q946-26" value="&lt;p style=&quot;line-height: 50%;&quot;&gt;&lt;span style=&quot;background-color: initial;&quot;&gt;ホーム&lt;/span&gt;&lt;/p&gt;&lt;p style=&quot;line-height: 50%;&quot;&gt;&lt;span style=&quot;background-color: initial;&quot;&gt;ルーター&lt;/span&gt;&lt;/p&gt;" style="text;html=1;align=center;verticalAlign=middle;resizable=0;points=[];autosize=1;strokeColor=none;fillColor=none;fontSize=24;" parent="1" vertex="1">
          <mxGeometry x="-425" y="490" width="120" height="110" as="geometry" />
        </mxCell>
        <mxCell id="3SPEe0byowuw1gI_Q946-28" value="" style="html=1;outlineConnect=0;fillColor=#CCCCCC;strokeColor=#6881B3;gradientColor=none;gradientDirection=north;strokeWidth=2;shape=mxgraph.networks.comm_link_edge;html=1;rounded=0;entryX=0.475;entryY=1.016;entryDx=0;entryDy=0;entryPerimeter=0;exitX=0.357;exitY=0.716;exitDx=0;exitDy=0;exitPerimeter=0;" parent="1" edge="1">
          <mxGeometry width="100" height="100" relative="1" as="geometry">
            <mxPoint x="-375.0600000000002" y="430.8599999999999" as="sourcePoint" />
            <mxPoint x="-383.26" y="241.43999999999983" as="targetPoint" />
          </mxGeometry>
        </mxCell>
        <mxCell id="3SPEe0byowuw1gI_Q946-29" value="" style="html=1;outlineConnect=0;fillColor=#CCCCCC;strokeColor=#6881B3;gradientColor=none;gradientDirection=north;strokeWidth=2;shape=mxgraph.networks.comm_link_edge;html=1;rounded=0;exitX=0;exitY=0.7;exitDx=0;exitDy=0;exitPerimeter=0;" parent="1" edge="1">
          <mxGeometry width="100" height="100" relative="1" as="geometry">
            <mxPoint x="-410.76" y="429.5" as="sourcePoint" />
            <mxPoint x="-515.8133049040509" y="240" as="targetPoint" />
          </mxGeometry>
        </mxCell>
        <mxCell id="3SPEe0byowuw1gI_Q946-33" style="edgeStyle=none;html=1;labelBackgroundColor=none;endArrow=none;endFill=0;strokeWidth=2;fontFamily=Verdana;fontSize=28;fontColor=#6881B3;exitX=0.5;exitY=0;exitDx=0;exitDy=0;exitPerimeter=0;entryX=1.004;entryY=0.84;entryDx=0;entryDy=0;entryPerimeter=0;" parent="1" source="7c3789c024ecab99-10" target="7c3789c024ecab99-9" edge="1">
          <mxGeometry relative="1" as="geometry">
            <mxPoint x="174.4000000000001" y="-49.75999999999999" as="sourcePoint" />
            <mxPoint x="-164.5999999999999" y="-49.75999999999999" as="targetPoint" />
            <Array as="points">
              <mxPoint x="55" y="-49" />
            </Array>
          </mxGeometry>
        </mxCell>
        <mxCell id="3SPEe0byowuw1gI_Q946-35" value="" style="fontColor=#0066CC;verticalAlign=top;verticalLabelPosition=bottom;labelPosition=center;align=center;html=1;outlineConnect=0;fillColor=#CCCCCC;strokeColor=#6881B3;gradientColor=none;gradientDirection=north;strokeWidth=2;shape=mxgraph.networks.laptop;" parent="1" vertex="1">
          <mxGeometry x="-855" y="20" width="100" height="55" as="geometry" />
        </mxCell>
        <mxCell id="3SPEe0byowuw1gI_Q946-36" value="" style="fontColor=#0066CC;verticalAlign=top;verticalLabelPosition=bottom;labelPosition=center;align=center;html=1;outlineConnect=0;fillColor=#CCCCCC;strokeColor=#6881B3;gradientColor=none;gradientDirection=north;strokeWidth=2;shape=mxgraph.networks.laptop;" parent="1" vertex="1">
          <mxGeometry x="-855" y="-70" width="100" height="55" as="geometry" />
        </mxCell>
        <mxCell id="3SPEe0byowuw1gI_Q946-39" value="" style="fontColor=#0066CC;verticalAlign=top;verticalLabelPosition=bottom;labelPosition=center;align=center;html=1;outlineConnect=0;fillColor=#CCCCCC;strokeColor=#6881B3;gradientColor=none;gradientDirection=north;strokeWidth=2;shape=mxgraph.networks.pc;" parent="1" vertex="1">
          <mxGeometry x="-655" y="630" width="100" height="70" as="geometry" />
        </mxCell>
        <mxCell id="3SPEe0byowuw1gI_Q946-40" value="" style="fontColor=#0066CC;verticalAlign=top;verticalLabelPosition=bottom;labelPosition=center;align=center;html=1;outlineConnect=0;fillColor=#CCCCCC;strokeColor=#6881B3;gradientColor=none;gradientDirection=north;strokeWidth=2;shape=mxgraph.networks.desktop_pc;" parent="1" vertex="1">
          <mxGeometry x="-260" y="630" width="30" height="60" as="geometry" />
        </mxCell>
        <mxCell id="3SPEe0byowuw1gI_Q946-41" value="" style="fontColor=#0066CC;verticalAlign=top;verticalLabelPosition=bottom;labelPosition=center;align=center;html=1;outlineConnect=0;fillColor=#CCCCCC;strokeColor=#6881B3;gradientColor=none;gradientDirection=north;strokeWidth=2;shape=mxgraph.networks.laptop;" parent="1" vertex="1">
          <mxGeometry x="-595" y="135" width="100" height="55" as="geometry" />
        </mxCell>
        <mxCell id="3SPEe0byowuw1gI_Q946-42" value="" style="fontColor=#0066CC;verticalAlign=top;verticalLabelPosition=bottom;labelPosition=center;align=center;html=1;outlineConnect=0;fillColor=#CCCCCC;strokeColor=#6881B3;gradientColor=none;gradientDirection=north;strokeWidth=2;shape=mxgraph.networks.laptop;" parent="1" vertex="1">
          <mxGeometry x="-435" y="135" width="100" height="55" as="geometry" />
        </mxCell>
        <mxCell id="3SPEe0byowuw1gI_Q946-43" value="" style="html=1;outlineConnect=0;fillColor=#CCCCCC;strokeColor=#6881B3;gradientColor=none;gradientDirection=north;strokeWidth=2;shape=mxgraph.networks.comm_link_edge;html=1;rounded=0;entryX=0.02;entryY=0.94;entryDx=0;entryDy=0;entryPerimeter=0;" parent="1" target="7c3789c024ecab99-30" edge="1">
          <mxGeometry width="100" height="100" relative="1" as="geometry">
            <mxPoint x="-537.8588807785886" y="630" as="sourcePoint" />
            <mxPoint x="-430" y="459.5" as="targetPoint" />
          </mxGeometry>
        </mxCell>
        <mxCell id="3SPEe0byowuw1gI_Q946-44" value="" style="html=1;outlineConnect=0;fillColor=#CCCCCC;strokeColor=#6881B3;gradientColor=none;gradientDirection=north;strokeWidth=2;shape=mxgraph.networks.comm_link_edge;html=1;rounded=0;entryX=0.98;entryY=0.94;entryDx=0;entryDy=0;entryPerimeter=0;exitX=0.02;exitY=0.02;exitDx=0;exitDy=0;exitPerimeter=0;" parent="1" source="3SPEe0byowuw1gI_Q946-48" target="7c3789c024ecab99-30" edge="1">
          <mxGeometry width="100" height="100" relative="1" as="geometry">
            <mxPoint x="-254.9988807785885" y="630" as="sourcePoint" />
            <mxPoint x="-147.13999999999987" y="459.5" as="targetPoint" />
          </mxGeometry>
        </mxCell>
        <mxCell id="3SPEe0byowuw1gI_Q946-45" value="&lt;p style=&quot;line-height: 100%;&quot;&gt;専用PC&lt;br&gt;&lt;/p&gt;" style="text;html=1;align=center;verticalAlign=middle;resizable=0;points=[];autosize=1;strokeColor=none;fillColor=none;fontSize=24;" parent="1" vertex="1">
          <mxGeometry x="-595" y="690" width="100" height="90" as="geometry" />
        </mxCell>
        <mxCell id="3SPEe0byowuw1gI_Q946-46" value="&lt;p style=&quot;line-height: 100%;&quot;&gt;専用PC&lt;br&gt;&lt;/p&gt;" style="text;html=1;align=center;verticalAlign=middle;resizable=0;points=[];autosize=1;strokeColor=none;fillColor=none;fontSize=24;" parent="1" vertex="1">
          <mxGeometry x="-240" y="690" width="100" height="90" as="geometry" />
        </mxCell>
        <mxCell id="3SPEe0byowuw1gI_Q946-47" value="" style="fontColor=#0066CC;verticalAlign=top;verticalLabelPosition=bottom;labelPosition=center;align=center;html=1;outlineConnect=0;fillColor=#CCCCCC;strokeColor=#6881B3;gradientColor=none;gradientDirection=north;strokeWidth=2;shape=mxgraph.networks.pc;" parent="1" vertex="1">
          <mxGeometry x="-525" y="630" width="100" height="70" as="geometry" />
        </mxCell>
        <mxCell id="3SPEe0byowuw1gI_Q946-48" value="" style="fontColor=#0066CC;verticalAlign=top;verticalLabelPosition=bottom;labelPosition=center;align=center;html=1;outlineConnect=0;fillColor=#CCCCCC;strokeColor=#6881B3;gradientColor=none;gradientDirection=north;strokeWidth=2;shape=mxgraph.networks.desktop_pc;" parent="1" vertex="1">
          <mxGeometry x="-205" y="630" width="30" height="60" as="geometry" />
        </mxCell>
        <mxCell id="3SPEe0byowuw1gI_Q946-49" value="" style="fontColor=#0066CC;verticalAlign=top;verticalLabelPosition=bottom;labelPosition=center;align=center;html=1;outlineConnect=0;fillColor=#CCCCCC;strokeColor=#6881B3;gradientColor=none;gradientDirection=north;strokeWidth=2;shape=mxgraph.networks.desktop_pc;" parent="1" vertex="1">
          <mxGeometry x="-145" y="630" width="30" height="60" as="geometry" />
        </mxCell>
        <mxCell id="3SPEe0byowuw1gI_Q946-51" value="" style="html=1;outlineConnect=0;fillColor=#CCCCCC;strokeColor=#6881B3;gradientColor=none;gradientDirection=north;strokeWidth=2;shape=mxgraph.networks.comm_link_edge;html=1;rounded=0;exitX=1;exitY=0.07;exitDx=0;exitDy=0;exitPerimeter=0;" parent="1" edge="1">
          <mxGeometry width="100" height="100" relative="1" as="geometry">
            <mxPoint x="-740" y="-1.1368683772161603e-13" as="sourcePoint" />
            <mxPoint x="-455" y="-30" as="targetPoint" />
          </mxGeometry>
        </mxCell>
        <mxCell id="3SPEe0byowuw1gI_Q946-60" value="Internet" style="html=1;fillColor=#CCCCCC;strokeColor=#6881B3;gradientColor=none;gradientDirection=north;strokeWidth=2;shape=mxgraph.networks.cloud;fontColor=#6881B3;rounded=0;shadow=0;comic=0;align=center;fontSize=28;" parent="1" vertex="1">
          <mxGeometry x="25" y="1755" width="330" height="140" as="geometry" />
        </mxCell>
        <mxCell id="3SPEe0byowuw1gI_Q946-64" value="" style="fontColor=#0066CC;verticalAlign=top;verticalLabelPosition=bottom;labelPosition=center;align=center;html=1;fillColor=#CCCCCC;strokeColor=#6881B3;gradientColor=none;gradientDirection=north;strokeWidth=2;shape=mxgraph.networks.server_storage;rounded=0;shadow=0;comic=0;" parent="1" vertex="1">
          <mxGeometry x="245" y="1275" width="105" height="105" as="geometry" />
        </mxCell>
        <mxCell id="3SPEe0byowuw1gI_Q946-68" value="&lt;p style=&quot;line-height: 100%;&quot;&gt;専用PC&lt;br&gt;&lt;/p&gt;" style="text;html=1;align=center;verticalAlign=middle;resizable=0;points=[];autosize=1;strokeColor=none;fillColor=none;fontSize=24;" parent="1" vertex="1">
          <mxGeometry x="-340" y="1580" width="100" height="90" as="geometry" />
        </mxCell>
        <mxCell id="3SPEe0byowuw1gI_Q946-69" value="&lt;p style=&quot;line-height: 100%;&quot;&gt;専用PC&lt;br&gt;&lt;/p&gt;" style="text;html=1;align=center;verticalAlign=middle;resizable=0;points=[];autosize=1;strokeColor=none;fillColor=none;fontSize=24;" parent="1" vertex="1">
          <mxGeometry x="-500" y="1580" width="100" height="90" as="geometry" />
        </mxCell>
        <mxCell id="3SPEe0byowuw1gI_Q946-71" value="&lt;p style=&quot;line-height: 50%;&quot;&gt;SBLUE&lt;/p&gt;&lt;p style=&quot;line-height: 50%;&quot;&gt;ルーター&lt;/p&gt;" style="text;html=1;align=center;verticalAlign=middle;resizable=0;points=[];autosize=1;strokeColor=none;fillColor=none;fontSize=24;" parent="1" vertex="1">
          <mxGeometry x="-485" y="1220" width="120" height="110" as="geometry" />
        </mxCell>
        <mxCell id="3SPEe0byowuw1gI_Q946-72" value="&lt;p style=&quot;line-height: 50%;&quot;&gt;SBLUE&lt;/p&gt;&lt;p style=&quot;line-height: 50%;&quot;&gt;ルーター&lt;br&gt;&lt;/p&gt;" style="text;html=1;align=center;verticalAlign=middle;resizable=0;points=[];autosize=1;strokeColor=none;fillColor=none;fontSize=24;" parent="1" vertex="1">
          <mxGeometry x="-5" y="1570" width="120" height="110" as="geometry" />
        </mxCell>
        <mxCell id="3SPEe0byowuw1gI_Q946-74" value="&lt;p style=&quot;line-height: 50%;&quot;&gt;Box&lt;/p&gt;" style="text;html=1;align=center;verticalAlign=middle;resizable=0;points=[];autosize=1;strokeColor=none;fillColor=none;fontSize=24;" parent="1" vertex="1">
          <mxGeometry x="265" y="1200" width="60" height="70" as="geometry" />
        </mxCell>
        <mxCell id="3SPEe0byowuw1gI_Q946-76" value="&lt;p style=&quot;line-height: 100%;&quot;&gt;標準PC&lt;br&gt;&lt;/p&gt;" style="text;html=1;align=center;verticalAlign=middle;resizable=0;points=[];autosize=1;strokeColor=none;fillColor=none;fontSize=24;" parent="1" vertex="1">
          <mxGeometry x="-855" y="1455" width="100" height="90" as="geometry" />
        </mxCell>
        <mxCell id="3SPEe0byowuw1gI_Q946-77" value="&lt;p style=&quot;line-height: 50%;&quot;&gt;&lt;span style=&quot;background-color: initial;&quot;&gt;ホーム&lt;/span&gt;&lt;/p&gt;&lt;p style=&quot;line-height: 50%;&quot;&gt;&lt;span style=&quot;background-color: initial;&quot;&gt;ルーター&lt;/span&gt;&lt;/p&gt;" style="text;html=1;align=center;verticalAlign=middle;resizable=0;points=[];autosize=1;strokeColor=none;fillColor=none;fontSize=24;" parent="1" vertex="1">
          <mxGeometry x="-500" y="1735" width="120" height="110" as="geometry" />
        </mxCell>
        <mxCell id="3SPEe0byowuw1gI_Q946-81" value="" style="fontColor=#0066CC;verticalAlign=top;verticalLabelPosition=bottom;labelPosition=center;align=center;html=1;outlineConnect=0;fillColor=#CCCCCC;strokeColor=#6881B3;gradientColor=none;gradientDirection=north;strokeWidth=2;shape=mxgraph.networks.laptop;" parent="1" vertex="1">
          <mxGeometry x="-855" y="1400" width="100" height="55" as="geometry" />
        </mxCell>
        <mxCell id="3SPEe0byowuw1gI_Q946-82" value="" style="fontColor=#0066CC;verticalAlign=top;verticalLabelPosition=bottom;labelPosition=center;align=center;html=1;outlineConnect=0;fillColor=#CCCCCC;strokeColor=#6881B3;gradientColor=none;gradientDirection=north;strokeWidth=2;shape=mxgraph.networks.laptop;" parent="1" vertex="1">
          <mxGeometry x="-855" y="1310" width="100" height="55" as="geometry" />
        </mxCell>
        <mxCell id="3SPEe0byowuw1gI_Q946-83" value="" style="fontColor=#0066CC;verticalAlign=top;verticalLabelPosition=bottom;labelPosition=center;align=center;html=1;outlineConnect=0;fillColor=#CCCCCC;strokeColor=#6881B3;gradientColor=none;gradientDirection=north;strokeWidth=2;shape=mxgraph.networks.pc;" parent="1" vertex="1">
          <mxGeometry x="-655" y="2010" width="100" height="70" as="geometry" />
        </mxCell>
        <mxCell id="3SPEe0byowuw1gI_Q946-84" value="" style="fontColor=#0066CC;verticalAlign=top;verticalLabelPosition=bottom;labelPosition=center;align=center;html=1;outlineConnect=0;fillColor=#CCCCCC;strokeColor=#6881B3;gradientColor=none;gradientDirection=north;strokeWidth=2;shape=mxgraph.networks.desktop_pc;" parent="1" vertex="1">
          <mxGeometry x="-260" y="2010" width="30" height="60" as="geometry" />
        </mxCell>
        <mxCell id="3SPEe0byowuw1gI_Q946-85" value="" style="fontColor=#0066CC;verticalAlign=top;verticalLabelPosition=bottom;labelPosition=center;align=center;html=1;outlineConnect=0;fillColor=#CCCCCC;strokeColor=#6881B3;gradientColor=none;gradientDirection=north;strokeWidth=2;shape=mxgraph.networks.laptop;" parent="1" vertex="1">
          <mxGeometry x="-500" y="1535" width="100" height="55" as="geometry" />
        </mxCell>
        <mxCell id="3SPEe0byowuw1gI_Q946-86" value="" style="fontColor=#0066CC;verticalAlign=top;verticalLabelPosition=bottom;labelPosition=center;align=center;html=1;outlineConnect=0;fillColor=#CCCCCC;strokeColor=#6881B3;gradientColor=none;gradientDirection=north;strokeWidth=2;shape=mxgraph.networks.laptop;" parent="1" vertex="1">
          <mxGeometry x="-340" y="1535" width="100" height="55" as="geometry" />
        </mxCell>
        <mxCell id="3SPEe0byowuw1gI_Q946-89" value="&lt;p style=&quot;line-height: 100%;&quot;&gt;専用PC&lt;br&gt;&lt;/p&gt;" style="text;html=1;align=center;verticalAlign=middle;resizable=0;points=[];autosize=1;strokeColor=none;fillColor=none;fontSize=24;" parent="1" vertex="1">
          <mxGeometry x="-595" y="2070" width="100" height="90" as="geometry" />
        </mxCell>
        <mxCell id="3SPEe0byowuw1gI_Q946-90" value="&lt;p style=&quot;line-height: 100%;&quot;&gt;専用PC&lt;br&gt;&lt;/p&gt;" style="text;html=1;align=center;verticalAlign=middle;resizable=0;points=[];autosize=1;strokeColor=none;fillColor=none;fontSize=24;" parent="1" vertex="1">
          <mxGeometry x="-240" y="2070" width="100" height="90" as="geometry" />
        </mxCell>
        <mxCell id="3SPEe0byowuw1gI_Q946-91" value="" style="fontColor=#0066CC;verticalAlign=top;verticalLabelPosition=bottom;labelPosition=center;align=center;html=1;outlineConnect=0;fillColor=#CCCCCC;strokeColor=#6881B3;gradientColor=none;gradientDirection=north;strokeWidth=2;shape=mxgraph.networks.pc;" parent="1" vertex="1">
          <mxGeometry x="-525" y="2010" width="100" height="70" as="geometry" />
        </mxCell>
        <mxCell id="3SPEe0byowuw1gI_Q946-92" value="" style="fontColor=#0066CC;verticalAlign=top;verticalLabelPosition=bottom;labelPosition=center;align=center;html=1;outlineConnect=0;fillColor=#CCCCCC;strokeColor=#6881B3;gradientColor=none;gradientDirection=north;strokeWidth=2;shape=mxgraph.networks.desktop_pc;" parent="1" vertex="1">
          <mxGeometry x="-205" y="2010" width="30" height="60" as="geometry" />
        </mxCell>
        <mxCell id="3SPEe0byowuw1gI_Q946-93" value="" style="fontColor=#0066CC;verticalAlign=top;verticalLabelPosition=bottom;labelPosition=center;align=center;html=1;outlineConnect=0;fillColor=#CCCCCC;strokeColor=#6881B3;gradientColor=none;gradientDirection=north;strokeWidth=2;shape=mxgraph.networks.desktop_pc;" parent="1" vertex="1">
          <mxGeometry x="-145" y="2010" width="30" height="60" as="geometry" />
        </mxCell>
        <mxCell id="3SPEe0byowuw1gI_Q946-97" value="&lt;font style=&quot;font-size: 19px;&quot;&gt;Proxy on&lt;/font&gt;" style="rounded=0;whiteSpace=wrap;html=1;" parent="1" vertex="1">
          <mxGeometry x="-500" y="1480" width="255" height="35" as="geometry" />
        </mxCell>
        <mxCell id="3SPEe0byowuw1gI_Q946-98" value="&lt;font style=&quot;font-size: 19px;&quot;&gt;Proxy off&lt;/font&gt;" style="rounded=0;whiteSpace=wrap;html=1;" parent="1" vertex="1">
          <mxGeometry x="-500" y="1650" width="255" height="35" as="geometry" />
        </mxCell>
        <mxCell id="3SPEe0byowuw1gI_Q946-100" value="" style="curved=1;endArrow=classic;html=1;rounded=0;exitX=0.5;exitY=0;exitDx=0;exitDy=0;fontSize=12;textShadow=0;labelBorderColor=none;fillColor=#f8cecc;strokeColor=#FF3333;strokeWidth=11;" parent="1" edge="1">
          <mxGeometry width="50" height="50" relative="1" as="geometry">
            <mxPoint x="-372.5" y="1479.9999999999995" as="sourcePoint" />
            <mxPoint x="305" y="1390" as="targetPoint" />
            <Array as="points">
              <mxPoint x="-372" y="1380" />
              <mxPoint x="-275" y="1320" />
              <mxPoint x="-20" y="1580" />
              <mxPoint x="375" y="1580" />
            </Array>
          </mxGeometry>
        </mxCell>
        <mxCell id="3SPEe0byowuw1gI_Q946-103" value="" style="curved=1;endArrow=classic;html=1;rounded=0;fontSize=12;textShadow=0;labelBorderColor=none;fillColor=#f8cecc;strokeColor=#FF3333;strokeWidth=11;" parent="1" edge="1">
          <mxGeometry width="50" height="50" relative="1" as="geometry">
            <mxPoint x="255" y="1570" as="sourcePoint" />
            <mxPoint x="235" y="1750" as="targetPoint" />
            <Array as="points">
              <mxPoint x="325" y="1550" />
              <mxPoint x="300" y="1680" />
            </Array>
          </mxGeometry>
        </mxCell>
        <mxCell id="3SPEe0byowuw1gI_Q946-104" value="" style="curved=1;endArrow=classic;html=1;rounded=0;fontSize=12;textShadow=0;labelBorderColor=none;fillColor=#f8cecc;strokeColor=#0000FF;strokeWidth=11;" parent="1" source="3SPEe0byowuw1gI_Q946-98" edge="1">
          <mxGeometry width="50" height="50" relative="1" as="geometry">
            <mxPoint x="-375" y="1690" as="sourcePoint" />
            <mxPoint x="-545" y="2000" as="targetPoint" />
            <Array as="points">
              <mxPoint x="-365" y="1790" />
              <mxPoint x="-405" y="1930" />
            </Array>
          </mxGeometry>
        </mxCell>
        <mxCell id="3SPEe0byowuw1gI_Q946-105" value="" style="curved=1;endArrow=classic;html=1;rounded=0;fontSize=12;textShadow=0;labelBorderColor=none;fillColor=#f8cecc;strokeColor=#0000FF;strokeWidth=11;" parent="1" edge="1">
          <mxGeometry width="50" height="50" relative="1" as="geometry">
            <mxPoint x="-385" y="1860" as="sourcePoint" />
            <mxPoint x="-255" y="2000" as="targetPoint" />
            <Array as="points">
              <mxPoint x="-365" y="1950" />
            </Array>
          </mxGeometry>
        </mxCell>
        <mxCell id="3SPEe0byowuw1gI_Q946-107" value="" style="curved=1;endArrow=classic;html=1;rounded=0;fontSize=12;textShadow=0;labelBorderColor=none;fillColor=#f8cecc;strokeColor=#009900;strokeWidth=11;endFill=1;" parent="1" edge="1">
          <mxGeometry width="50" height="50" relative="1" as="geometry">
            <mxPoint x="-200" y="2000" as="sourcePoint" />
            <mxPoint x="-330" y="1860" as="targetPoint" />
            <Array as="points">
              <mxPoint x="-130" y="1940" />
            </Array>
          </mxGeometry>
        </mxCell>
        <mxCell id="3SPEe0byowuw1gI_Q946-108" value="" style="curved=1;endArrow=none;html=1;rounded=0;fontSize=12;textShadow=0;labelBorderColor=none;fillColor=#f8cecc;strokeColor=#009900;strokeWidth=11;exitX=0.579;exitY=1.149;exitDx=0;exitDy=0;exitPerimeter=0;endFill=0;" parent="1" source="3SPEe0byowuw1gI_Q946-98" edge="1">
          <mxGeometry width="50" height="50" relative="1" as="geometry">
            <mxPoint x="-340" y="1700" as="sourcePoint" />
            <mxPoint x="-240" y="1840" as="targetPoint" />
            <Array as="points">
              <mxPoint x="-340" y="1810" />
            </Array>
          </mxGeometry>
        </mxCell>
        <mxCell id="3SPEe0byowuw1gI_Q946-109" value="" style="curved=1;endArrow=none;html=1;rounded=0;fontSize=12;textShadow=0;labelBorderColor=none;fillColor=#f8cecc;strokeColor=#FF3333;strokeWidth=11;endFill=0;" parent="1" edge="1">
          <mxGeometry width="50" height="50" relative="1" as="geometry">
            <mxPoint x="-735.99" y="1380" as="sourcePoint" />
            <mxPoint x="-295" y="1345.23" as="targetPoint" />
            <Array as="points">
              <mxPoint x="-515" y="1315.23" />
            </Array>
          </mxGeometry>
        </mxCell>
        <mxCell id="3SPEe0byowuw1gI_Q946-111" value="" style="endArrow=classic;html=1;rounded=0;strokeWidth=11;strokeColor=#FF3333;" parent="1" edge="1">
          <mxGeometry width="50" height="50" relative="1" as="geometry">
            <mxPoint x="-860" y="1040" as="sourcePoint" />
            <mxPoint x="-660" y="1040" as="targetPoint" />
          </mxGeometry>
        </mxCell>
        <mxCell id="3SPEe0byowuw1gI_Q946-112" value="&lt;font color=&quot;#ff3333&quot; style=&quot;font-size: 24px;&quot;&gt;一般業務（メール、Teams、Box、購買…）&lt;/font&gt;" style="edgeLabel;html=1;align=center;verticalAlign=middle;resizable=0;points=[];" parent="3SPEe0byowuw1gI_Q946-111" vertex="1" connectable="0">
          <mxGeometry x="0.1626" y="7" relative="1" as="geometry">
            <mxPoint x="334" y="3" as="offset" />
          </mxGeometry>
        </mxCell>
        <mxCell id="3SPEe0byowuw1gI_Q946-113" value="" style="endArrow=classic;html=1;rounded=0;strokeWidth=11;strokeColor=#0000FF;" parent="1" edge="1">
          <mxGeometry width="50" height="50" relative="1" as="geometry">
            <mxPoint x="-860" y="1110" as="sourcePoint" />
            <mxPoint x="-660" y="1110" as="targetPoint" />
          </mxGeometry>
        </mxCell>
        <mxCell id="3SPEe0byowuw1gI_Q946-114" value="&lt;font color=&quot;#0000ff&quot; style=&quot;font-size: 24px;&quot;&gt;開発業務（SSH、Remote desktop、Programing）&lt;/font&gt;" style="edgeLabel;html=1;align=center;verticalAlign=middle;resizable=0;points=[];" parent="3SPEe0byowuw1gI_Q946-113" vertex="1" connectable="0">
          <mxGeometry x="0.1626" y="7" relative="1" as="geometry">
            <mxPoint x="371" y="7" as="offset" />
          </mxGeometry>
        </mxCell>
        <mxCell id="R_TfwoHonHVuo36BQs9o-2" style="edgeStyle=none;html=1;labelBackgroundColor=none;endArrow=none;endFill=0;strokeWidth=2;fontFamily=Verdana;fontSize=28;fontColor=#6881B3;exitX=0.5;exitY=0;exitDx=0;exitDy=0;exitPerimeter=0;entryX=0.825;entryY=0.935;entryDx=0;entryDy=0;entryPerimeter=0;" parent="1" source="7c3789c024ecab99-6" target="7c3789c024ecab99-9" edge="1">
          <mxGeometry relative="1" as="geometry">
            <mxPoint x="104.98" y="20.24000000000001" as="sourcePoint" />
            <mxPoint x="-234.01999999999998" y="20.24000000000001" as="targetPoint" />
          </mxGeometry>
        </mxCell>
        <mxCell id="R_TfwoHonHVuo36BQs9o-39" value="" style="fontColor=#0066CC;verticalAlign=top;verticalLabelPosition=bottom;labelPosition=center;align=center;html=1;fillColor=#CCCCCC;strokeColor=#6881B3;gradientColor=none;gradientDirection=north;strokeWidth=2;shape=mxgraph.networks.firewall;rounded=0;shadow=0;comic=0;" parent="1" vertex="1">
          <mxGeometry x="2590" y="1497" width="100" height="100" as="geometry" />
        </mxCell>
        <mxCell id="R_TfwoHonHVuo36BQs9o-40" value="" style="fontColor=#0066CC;verticalAlign=top;verticalLabelPosition=bottom;labelPosition=center;align=center;html=1;fillColor=#CCCCCC;strokeColor=#6881B3;gradientColor=none;gradientDirection=north;strokeWidth=2;shape=mxgraph.networks.router;rounded=0;shadow=0;comic=0;" parent="1" vertex="1">
          <mxGeometry x="2450" y="1532" width="100" height="30" as="geometry" />
        </mxCell>
        <mxCell id="R_TfwoHonHVuo36BQs9o-41" value="" style="fontColor=#0066CC;verticalAlign=top;verticalLabelPosition=bottom;labelPosition=center;align=center;html=1;fillColor=#CCCCCC;strokeColor=#6881B3;gradientColor=none;gradientDirection=north;strokeWidth=2;shape=mxgraph.networks.wireless_hub;rounded=0;shadow=0;comic=0;" parent="1" vertex="1">
          <mxGeometry x="2030.0000000000002" y="1240" width="100" height="85" as="geometry" />
        </mxCell>
        <mxCell id="R_TfwoHonHVuo36BQs9o-42" value="" style="fontColor=#0066CC;verticalAlign=top;verticalLabelPosition=bottom;labelPosition=center;align=center;html=1;fillColor=#CCCCCC;strokeColor=#6881B3;gradientColor=none;gradientDirection=north;strokeWidth=2;shape=mxgraph.networks.wireless_hub;rounded=0;shadow=0;comic=0;" parent="1" vertex="1">
          <mxGeometry x="2030.0000000000002" y="1745" width="100" height="85" as="geometry" />
        </mxCell>
        <mxCell id="R_TfwoHonHVuo36BQs9o-43" value="Internet" style="html=1;fillColor=#CCCCCC;strokeColor=#6881B3;gradientColor=none;gradientDirection=north;strokeWidth=2;shape=mxgraph.networks.cloud;fontColor=#6881B3;rounded=0;shadow=0;comic=0;align=center;fontSize=28;" parent="1" vertex="1">
          <mxGeometry x="2470" y="1735" width="330" height="140" as="geometry" />
        </mxCell>
        <mxCell id="R_TfwoHonHVuo36BQs9o-44" value="" style="fontColor=#0066CC;verticalAlign=top;verticalLabelPosition=bottom;labelPosition=center;align=center;html=1;fillColor=#CCCCCC;strokeColor=#6881B3;gradientColor=none;gradientDirection=north;strokeWidth=2;shape=mxgraph.networks.router;rounded=0;shadow=0;comic=0;" parent="1" vertex="1">
          <mxGeometry x="2730" y="1532" width="100" height="30" as="geometry" />
        </mxCell>
        <mxCell id="R_TfwoHonHVuo36BQs9o-45" value="" style="fontColor=#0066CC;verticalAlign=top;verticalLabelPosition=bottom;labelPosition=center;align=center;html=1;fillColor=#CCCCCC;strokeColor=#6881B3;gradientColor=none;gradientDirection=north;strokeWidth=2;shape=mxgraph.networks.server_storage;rounded=0;shadow=0;comic=0;" parent="1" vertex="1">
          <mxGeometry x="2690" y="1255" width="105" height="105" as="geometry" />
        </mxCell>
        <mxCell id="R_TfwoHonHVuo36BQs9o-46" value="&lt;p style=&quot;line-height: 100%;&quot;&gt;専用PC&lt;br&gt;&lt;/p&gt;" style="text;html=1;align=center;verticalAlign=middle;resizable=0;points=[];autosize=1;strokeColor=none;fillColor=none;fontSize=24;" parent="1" vertex="1">
          <mxGeometry x="2105" y="1560" width="100" height="90" as="geometry" />
        </mxCell>
        <mxCell id="R_TfwoHonHVuo36BQs9o-47" value="&lt;p style=&quot;line-height: 100%;&quot;&gt;専用PC&lt;br&gt;&lt;/p&gt;" style="text;html=1;align=center;verticalAlign=middle;resizable=0;points=[];autosize=1;strokeColor=none;fillColor=none;fontSize=24;" parent="1" vertex="1">
          <mxGeometry x="1945" y="1560" width="100" height="90" as="geometry" />
        </mxCell>
        <mxCell id="R_TfwoHonHVuo36BQs9o-48" value="&lt;p style=&quot;line-height: 50%;&quot;&gt;SBLUE&lt;/p&gt;&lt;p style=&quot;line-height: 50%;&quot;&gt;ルーター&lt;/p&gt;" style="text;html=1;align=center;verticalAlign=middle;resizable=0;points=[];autosize=1;strokeColor=none;fillColor=none;fontSize=24;" parent="1" vertex="1">
          <mxGeometry x="1960" y="1200" width="120" height="110" as="geometry" />
        </mxCell>
        <mxCell id="R_TfwoHonHVuo36BQs9o-49" value="&lt;p style=&quot;line-height: 50%;&quot;&gt;SBLUE&lt;/p&gt;&lt;p style=&quot;line-height: 50%;&quot;&gt;ルーター&lt;br&gt;&lt;/p&gt;" style="text;html=1;align=center;verticalAlign=middle;resizable=0;points=[];autosize=1;strokeColor=none;fillColor=none;fontSize=24;" parent="1" vertex="1">
          <mxGeometry x="2440" y="1550" width="120" height="110" as="geometry" />
        </mxCell>
        <mxCell id="R_TfwoHonHVuo36BQs9o-50" value="&lt;p style=&quot;line-height: 50%;&quot;&gt;Proxy&lt;/p&gt;&lt;p style=&quot;line-height: 50%;&quot;&gt;サーバー&lt;/p&gt;" style="text;html=1;align=center;verticalAlign=middle;resizable=0;points=[];autosize=1;strokeColor=none;fillColor=none;fontSize=24;" parent="1" vertex="1">
          <mxGeometry x="2750" y="1540" width="120" height="110" as="geometry" />
        </mxCell>
        <mxCell id="R_TfwoHonHVuo36BQs9o-52" value="&lt;p style=&quot;line-height: 50%;&quot;&gt;Free wifi&lt;/p&gt;" style="text;html=1;align=center;verticalAlign=middle;resizable=0;points=[];autosize=1;strokeColor=none;fillColor=none;fontSize=24;" parent="1" vertex="1">
          <mxGeometry x="2135" y="1740" width="110" height="70" as="geometry" />
        </mxCell>
        <mxCell id="R_TfwoHonHVuo36BQs9o-55" value="" style="fontColor=#0066CC;verticalAlign=top;verticalLabelPosition=bottom;labelPosition=center;align=center;html=1;outlineConnect=0;fillColor=#CCCCCC;strokeColor=#6881B3;gradientColor=none;gradientDirection=north;strokeWidth=2;shape=mxgraph.networks.pc;" parent="1" vertex="1">
          <mxGeometry x="1790" y="1990" width="100" height="70" as="geometry" />
        </mxCell>
        <mxCell id="R_TfwoHonHVuo36BQs9o-56" value="" style="fontColor=#0066CC;verticalAlign=top;verticalLabelPosition=bottom;labelPosition=center;align=center;html=1;outlineConnect=0;fillColor=#CCCCCC;strokeColor=#6881B3;gradientColor=none;gradientDirection=north;strokeWidth=2;shape=mxgraph.networks.desktop_pc;" parent="1" vertex="1">
          <mxGeometry x="2185" y="1990" width="30" height="60" as="geometry" />
        </mxCell>
        <mxCell id="R_TfwoHonHVuo36BQs9o-57" value="" style="fontColor=#0066CC;verticalAlign=top;verticalLabelPosition=bottom;labelPosition=center;align=center;html=1;outlineConnect=0;fillColor=#CCCCCC;strokeColor=#6881B3;gradientColor=none;gradientDirection=north;strokeWidth=2;shape=mxgraph.networks.laptop;" parent="1" vertex="1">
          <mxGeometry x="1945" y="1515" width="100" height="55" as="geometry" />
        </mxCell>
        <mxCell id="R_TfwoHonHVuo36BQs9o-58" value="" style="fontColor=#0066CC;verticalAlign=top;verticalLabelPosition=bottom;labelPosition=center;align=center;html=1;outlineConnect=0;fillColor=#CCCCCC;strokeColor=#6881B3;gradientColor=none;gradientDirection=north;strokeWidth=2;shape=mxgraph.networks.laptop;" parent="1" vertex="1">
          <mxGeometry x="2105" y="1515" width="100" height="55" as="geometry" />
        </mxCell>
        <mxCell id="R_TfwoHonHVuo36BQs9o-59" value="&lt;p style=&quot;line-height: 100%;&quot;&gt;専用PC&lt;br&gt;&lt;/p&gt;" style="text;html=1;align=center;verticalAlign=middle;resizable=0;points=[];autosize=1;strokeColor=none;fillColor=none;fontSize=24;" parent="1" vertex="1">
          <mxGeometry x="1850" y="2050" width="100" height="90" as="geometry" />
        </mxCell>
        <mxCell id="R_TfwoHonHVuo36BQs9o-60" value="&lt;p style=&quot;line-height: 100%;&quot;&gt;専用PC&lt;br&gt;&lt;/p&gt;" style="text;html=1;align=center;verticalAlign=middle;resizable=0;points=[];autosize=1;strokeColor=none;fillColor=none;fontSize=24;" parent="1" vertex="1">
          <mxGeometry x="2205" y="2050" width="100" height="90" as="geometry" />
        </mxCell>
        <mxCell id="R_TfwoHonHVuo36BQs9o-61" value="" style="fontColor=#0066CC;verticalAlign=top;verticalLabelPosition=bottom;labelPosition=center;align=center;html=1;outlineConnect=0;fillColor=#CCCCCC;strokeColor=#6881B3;gradientColor=none;gradientDirection=north;strokeWidth=2;shape=mxgraph.networks.pc;" parent="1" vertex="1">
          <mxGeometry x="1920" y="1990" width="100" height="70" as="geometry" />
        </mxCell>
        <mxCell id="R_TfwoHonHVuo36BQs9o-62" value="" style="fontColor=#0066CC;verticalAlign=top;verticalLabelPosition=bottom;labelPosition=center;align=center;html=1;outlineConnect=0;fillColor=#CCCCCC;strokeColor=#6881B3;gradientColor=none;gradientDirection=north;strokeWidth=2;shape=mxgraph.networks.desktop_pc;" parent="1" vertex="1">
          <mxGeometry x="2240" y="1990" width="30" height="60" as="geometry" />
        </mxCell>
        <mxCell id="R_TfwoHonHVuo36BQs9o-63" value="" style="fontColor=#0066CC;verticalAlign=top;verticalLabelPosition=bottom;labelPosition=center;align=center;html=1;outlineConnect=0;fillColor=#CCCCCC;strokeColor=#6881B3;gradientColor=none;gradientDirection=north;strokeWidth=2;shape=mxgraph.networks.desktop_pc;" parent="1" vertex="1">
          <mxGeometry x="2300" y="1990" width="30" height="60" as="geometry" />
        </mxCell>
        <mxCell id="R_TfwoHonHVuo36BQs9o-64" value="&lt;font style=&quot;font-size: 19px;&quot;&gt;Proxy on&lt;/font&gt;" style="rounded=0;whiteSpace=wrap;html=1;" parent="1" vertex="1">
          <mxGeometry x="1945" y="1460" width="255" height="35" as="geometry" />
        </mxCell>
        <mxCell id="R_TfwoHonHVuo36BQs9o-65" value="&lt;font style=&quot;font-size: 19px;&quot;&gt;Proxy off&lt;/font&gt;" style="rounded=0;whiteSpace=wrap;html=1;" parent="1" vertex="1">
          <mxGeometry x="1945" y="1630" width="255" height="35" as="geometry" />
        </mxCell>
        <mxCell id="R_TfwoHonHVuo36BQs9o-66" value="" style="curved=1;endArrow=classic;html=1;rounded=0;exitX=0.5;exitY=0;exitDx=0;exitDy=0;fontSize=12;textShadow=0;labelBorderColor=none;fillColor=#f8cecc;strokeColor=#FF3333;strokeWidth=11;" parent="1" edge="1">
          <mxGeometry width="50" height="50" relative="1" as="geometry">
            <mxPoint x="2072.5" y="1459.9999999999995" as="sourcePoint" />
            <mxPoint x="2750" y="1370" as="targetPoint" />
            <Array as="points">
              <mxPoint x="2073" y="1360" />
              <mxPoint x="2170" y="1300" />
              <mxPoint x="2450" y="1550" />
              <mxPoint x="2820" y="1560" />
            </Array>
          </mxGeometry>
        </mxCell>
        <mxCell id="R_TfwoHonHVuo36BQs9o-67" value="" style="curved=1;endArrow=classic;html=1;rounded=0;fontSize=12;textShadow=0;labelBorderColor=none;fillColor=#f8cecc;strokeColor=#FF3333;strokeWidth=11;" parent="1" edge="1">
          <mxGeometry width="50" height="50" relative="1" as="geometry">
            <mxPoint x="2700" y="1550" as="sourcePoint" />
            <mxPoint x="2680" y="1730" as="targetPoint" />
            <Array as="points">
              <mxPoint x="2770" y="1530" />
              <mxPoint x="2750" y="1660" />
            </Array>
          </mxGeometry>
        </mxCell>
        <mxCell id="R_TfwoHonHVuo36BQs9o-68" value="" style="curved=1;endArrow=classic;html=1;rounded=0;fontSize=12;textShadow=0;labelBorderColor=none;fillColor=#f8cecc;strokeColor=#0000FF;strokeWidth=11;" parent="1" source="R_TfwoHonHVuo36BQs9o-65" edge="1">
          <mxGeometry width="50" height="50" relative="1" as="geometry">
            <mxPoint x="2070" y="1670" as="sourcePoint" />
            <mxPoint x="1900" y="1980" as="targetPoint" />
            <Array as="points">
              <mxPoint x="2080" y="1770" />
              <mxPoint x="2040" y="1910" />
            </Array>
          </mxGeometry>
        </mxCell>
        <mxCell id="R_TfwoHonHVuo36BQs9o-69" value="" style="curved=1;endArrow=classic;html=1;rounded=0;fontSize=12;textShadow=0;labelBorderColor=none;fillColor=#f8cecc;strokeColor=#0000FF;strokeWidth=11;" parent="1" edge="1">
          <mxGeometry width="50" height="50" relative="1" as="geometry">
            <mxPoint x="2060" y="1840" as="sourcePoint" />
            <mxPoint x="2190" y="1980" as="targetPoint" />
            <Array as="points">
              <mxPoint x="2080" y="1930" />
            </Array>
          </mxGeometry>
        </mxCell>
        <mxCell id="R_TfwoHonHVuo36BQs9o-70" value="" style="curved=1;endArrow=classic;html=1;rounded=0;fontSize=12;textShadow=0;labelBorderColor=none;fillColor=#f8cecc;strokeColor=#0000FF;strokeWidth=11;" parent="1" edge="1">
          <mxGeometry width="50" height="50" relative="1" as="geometry">
            <mxPoint x="1980" y="2080" as="sourcePoint" />
            <mxPoint x="2610" y="1880" as="targetPoint" />
            <Array as="points">
              <mxPoint x="2140" y="2190" />
              <mxPoint x="2460" y="2150" />
            </Array>
          </mxGeometry>
        </mxCell>
        <mxCell id="R_TfwoHonHVuo36BQs9o-71" value="" style="curved=1;endArrow=none;html=1;rounded=0;fontSize=12;textShadow=0;labelBorderColor=none;fillColor=#f8cecc;strokeColor=#0000FF;strokeWidth=11;endFill=0;" parent="1" edge="1">
          <mxGeometry width="50" height="50" relative="1" as="geometry">
            <mxPoint x="2350" y="2060" as="sourcePoint" />
            <mxPoint x="2550" y="1980" as="targetPoint" />
            <Array as="points">
              <mxPoint x="2440" y="2070" />
            </Array>
          </mxGeometry>
        </mxCell>
        <mxCell id="R_TfwoHonHVuo36BQs9o-72" value="" style="curved=1;endArrow=classic;html=1;rounded=0;fontSize=12;textShadow=0;labelBorderColor=none;fillColor=#f8cecc;strokeColor=#0000FF;strokeWidth=11;entryX=0.003;entryY=0.789;entryDx=0;entryDy=0;entryPerimeter=0;" parent="1" target="R_TfwoHonHVuo36BQs9o-43" edge="1">
          <mxGeometry width="50" height="50" relative="1" as="geometry">
            <mxPoint x="2060" y="1850" as="sourcePoint" />
            <mxPoint x="2510.2400000000007" y="2028.4399999999996" as="targetPoint" />
            <Array as="points">
              <mxPoint x="2280" y="1960" />
            </Array>
          </mxGeometry>
        </mxCell>
        <mxCell id="R_TfwoHonHVuo36BQs9o-74" value="" style="curved=1;endArrow=classic;html=1;rounded=0;fontSize=12;textShadow=0;labelBorderColor=none;fillColor=#f8cecc;strokeColor=#009900;strokeWidth=11;endFill=1;" parent="1" edge="1">
          <mxGeometry width="50" height="50" relative="1" as="geometry">
            <mxPoint x="-560" y="1980" as="sourcePoint" />
            <mxPoint x="-420" y="1840" as="targetPoint" />
            <Array as="points">
              <mxPoint x="-560" y="1880" />
            </Array>
          </mxGeometry>
        </mxCell>
        <mxCell id="R_TfwoHonHVuo36BQs9o-75" value="" style="endArrow=classic;html=1;rounded=0;exitX=1.041;exitY=0.822;exitDx=0;exitDy=0;exitPerimeter=0;entryX=0.008;entryY=0.735;entryDx=0;entryDy=0;entryPerimeter=0;strokeWidth=11;strokeColor=#009900;" parent="1" source="3SPEe0byowuw1gI_Q946-59" target="3SPEe0byowuw1gI_Q946-60" edge="1">
          <mxGeometry width="50" height="50" relative="1" as="geometry">
            <mxPoint x="-90" y="1560" as="sourcePoint" />
            <mxPoint x="-40" y="1510" as="targetPoint" />
          </mxGeometry>
        </mxCell>
        <mxCell id="R_TfwoHonHVuo36BQs9o-76" value="" style="endArrow=classic;html=1;rounded=0;strokeWidth=11;strokeColor=#009900;" parent="1" edge="1">
          <mxGeometry width="50" height="50" relative="1" as="geometry">
            <mxPoint x="-860" y="1180" as="sourcePoint" />
            <mxPoint x="-660" y="1180" as="targetPoint" />
          </mxGeometry>
        </mxCell>
        <mxCell id="R_TfwoHonHVuo36BQs9o-77" value="&lt;font style=&quot;font-size: 24px;&quot;&gt;開発業務（CAD、Programing）&lt;/font&gt;" style="edgeLabel;html=1;align=center;verticalAlign=middle;resizable=0;points=[];fontColor=#009900;" parent="R_TfwoHonHVuo36BQs9o-76" vertex="1" connectable="0">
          <mxGeometry x="0.1626" y="7" relative="1" as="geometry">
            <mxPoint x="273" y="7" as="offset" />
          </mxGeometry>
        </mxCell>
        <mxCell id="T6BApimfSFjeVlqzS1vi-4" value="" style="group" vertex="1" connectable="0" parent="1">
          <mxGeometry x="558.75" y="1817" width="100" height="135" as="geometry" />
        </mxCell>
        <mxCell id="T6BApimfSFjeVlqzS1vi-2" value="&lt;p style=&quot;line-height: 100%;&quot;&gt;専用PC&lt;br&gt;&lt;/p&gt;" style="text;html=1;align=center;verticalAlign=middle;resizable=0;points=[];autosize=1;strokeColor=none;fillColor=none;fontSize=24;" vertex="1" parent="T6BApimfSFjeVlqzS1vi-4">
          <mxGeometry y="45" width="100" height="90" as="geometry" />
        </mxCell>
        <mxCell id="T6BApimfSFjeVlqzS1vi-3" value="" style="fontColor=#0066CC;verticalAlign=top;verticalLabelPosition=bottom;labelPosition=center;align=center;html=1;outlineConnect=0;fillColor=#CCCCCC;strokeColor=#6881B3;gradientColor=none;gradientDirection=north;strokeWidth=2;shape=mxgraph.networks.laptop;" vertex="1" parent="T6BApimfSFjeVlqzS1vi-4">
          <mxGeometry width="100" height="55" as="geometry" />
        </mxCell>
        <mxCell id="T6BApimfSFjeVlqzS1vi-7" value="&lt;font style=&quot;font-size: 19px;&quot;&gt;Proxy on&lt;/font&gt;" style="rounded=0;whiteSpace=wrap;html=1;" vertex="1" parent="1">
          <mxGeometry x="540" y="1760" width="137.5" height="35" as="geometry" />
        </mxCell>
        <mxCell id="T6BApimfSFjeVlqzS1vi-8" value="&lt;font style=&quot;font-size: 19px;&quot;&gt;NetMotion on&lt;/font&gt;" style="rounded=0;whiteSpace=wrap;html=1;" vertex="1" parent="1">
          <mxGeometry x="540" y="1700" width="137.5" height="35" as="geometry" />
        </mxCell>
        <mxCell id="T6BApimfSFjeVlqzS1vi-9" value="" style="curved=1;endArrow=none;html=1;rounded=0;fontSize=12;textShadow=0;labelBorderColor=none;fillColor=#f8cecc;strokeColor=#FF3333;strokeWidth=11;exitX=0.5;exitY=0;exitDx=0;exitDy=0;endFill=0;" edge="1" parent="1" source="T6BApimfSFjeVlqzS1vi-8">
          <mxGeometry width="50" height="50" relative="1" as="geometry">
            <mxPoint x="460" y="1385" as="sourcePoint" />
            <mxPoint x="300" y="1660" as="targetPoint" />
            <Array as="points">
              <mxPoint x="630" y="1550" />
              <mxPoint x="390" y="1520" />
            </Array>
          </mxGeometry>
        </mxCell>
        <mxCell id="T6BApimfSFjeVlqzS1vi-10" value="" style="curved=1;endArrow=none;html=1;rounded=0;fontSize=12;textShadow=0;labelBorderColor=none;fillColor=#f8cecc;strokeColor=#FF3333;strokeWidth=11;endFill=0;" edge="1" parent="1">
          <mxGeometry width="50" height="50" relative="1" as="geometry">
            <mxPoint x="440" y="1540" as="sourcePoint" />
            <mxPoint x="330" y="1497.5" as="targetPoint" />
            <Array as="points">
              <mxPoint x="310" y="1580" />
            </Array>
          </mxGeometry>
        </mxCell>
        <mxCell id="T6BApimfSFjeVlqzS1vi-6" value="" style="fontColor=#0066CC;verticalAlign=top;verticalLabelPosition=bottom;labelPosition=center;align=center;html=1;fillColor=#CCCCCC;strokeColor=#6881B3;gradientColor=none;gradientDirection=north;strokeWidth=2;shape=mxgraph.networks.wireless_hub;rounded=0;shadow=0;comic=0;" vertex="1" parent="1">
          <mxGeometry x="558.7500000000002" y="1504.5" width="100" height="85" as="geometry" />
        </mxCell>
        <mxCell id="3SPEe0byowuw1gI_Q946-73" value="&lt;p style=&quot;line-height: 50%;&quot;&gt;Proxy&lt;/p&gt;&lt;p style=&quot;line-height: 50%;&quot;&gt;サーバー&lt;/p&gt;" style="text;html=1;align=center;verticalAlign=middle;resizable=0;points=[];autosize=1;strokeColor=none;fillColor=none;fontSize=24;" parent="1" vertex="1">
          <mxGeometry x="325" y="1570" width="120" height="110" as="geometry" />
        </mxCell>
        <mxCell id="3SPEe0byowuw1gI_Q946-62" value="" style="fontColor=#0066CC;verticalAlign=top;verticalLabelPosition=bottom;labelPosition=center;align=center;html=1;fillColor=#CCCCCC;strokeColor=#6881B3;gradientColor=none;gradientDirection=north;strokeWidth=2;shape=mxgraph.networks.router;rounded=0;shadow=0;comic=0;" parent="1" vertex="1">
          <mxGeometry x="285" y="1552" width="100" height="30" as="geometry" />
        </mxCell>
        <mxCell id="3SPEe0byowuw1gI_Q946-56" value="" style="fontColor=#0066CC;verticalAlign=top;verticalLabelPosition=bottom;labelPosition=center;align=center;html=1;fillColor=#CCCCCC;strokeColor=#6881B3;gradientColor=none;gradientDirection=north;strokeWidth=2;shape=mxgraph.networks.router;rounded=0;shadow=0;comic=0;" parent="1" vertex="1">
          <mxGeometry x="5" y="1552" width="100" height="30" as="geometry" />
        </mxCell>
        <mxCell id="3SPEe0byowuw1gI_Q946-54" value="" style="fontColor=#0066CC;verticalAlign=top;verticalLabelPosition=bottom;labelPosition=center;align=center;html=1;fillColor=#CCCCCC;strokeColor=#6881B3;gradientColor=none;gradientDirection=north;strokeWidth=2;shape=mxgraph.networks.firewall;rounded=0;shadow=0;comic=0;" parent="1" vertex="1">
          <mxGeometry x="145" y="1517" width="100" height="100" as="geometry" />
        </mxCell>
        <mxCell id="3SPEe0byowuw1gI_Q946-58" value="" style="fontColor=#0066CC;verticalAlign=top;verticalLabelPosition=bottom;labelPosition=center;align=center;html=1;fillColor=#CCCCCC;strokeColor=#6881B3;gradientColor=none;gradientDirection=north;strokeWidth=2;shape=mxgraph.networks.wireless_hub;rounded=0;shadow=0;comic=0;" parent="1" vertex="1">
          <mxGeometry x="-414.9999999999998" y="1260" width="100" height="85" as="geometry" />
        </mxCell>
        <mxCell id="3SPEe0byowuw1gI_Q946-59" value="" style="fontColor=#0066CC;verticalAlign=top;verticalLabelPosition=bottom;labelPosition=center;align=center;html=1;fillColor=#CCCCCC;strokeColor=#6881B3;gradientColor=none;gradientDirection=north;strokeWidth=2;shape=mxgraph.networks.wireless_hub;rounded=0;shadow=0;comic=0;" parent="1" vertex="1">
          <mxGeometry x="-414.9999999999998" y="1765" width="100" height="85" as="geometry" />
        </mxCell>
        <mxCell id="T6BApimfSFjeVlqzS1vi-11" value="&lt;font style=&quot;font-size: 28px;&quot;&gt;1&lt;/font&gt;" style="ellipse;whiteSpace=wrap;html=1;aspect=fixed;fillColor=#f8cecc;strokeColor=#b85450;" vertex="1" parent="1">
          <mxGeometry x="-140" y="1370" width="50" height="50" as="geometry" />
        </mxCell>
        <mxCell id="T6BApimfSFjeVlqzS1vi-12" value="&lt;font style=&quot;font-size: 28px;&quot;&gt;3&lt;/font&gt;" style="ellipse;whiteSpace=wrap;html=1;aspect=fixed;fillColor=#d5e8d4;strokeColor=#82b366;" vertex="1" parent="1">
          <mxGeometry x="-225" y="1735" width="50" height="50" as="geometry" />
        </mxCell>
        <mxCell id="T6BApimfSFjeVlqzS1vi-13" value="&lt;font style=&quot;font-size: 28px;&quot;&gt;2&lt;/font&gt;" style="ellipse;whiteSpace=wrap;html=1;aspect=fixed;fillColor=#f8cecc;strokeColor=#b85450;" vertex="1" parent="1">
          <mxGeometry x="525" y="1610" width="50" height="50" as="geometry" />
        </mxCell>
      </root>
    </mxGraphModel>
  </diagram>
</mxfile>
